<?xml version="1.0" standalone="no"?>
<!DOCTYPE svg PUBLIC "-//W3C//DTD SVG 20010904//EN"
 "http://www.w3.org/TR/2001/REC-SVG-20010904/DTD/svg10.dtd">
<svg version="1.0" xmlns="http://www.w3.org/2000/svg"
 width="690.000000pt" height="303.000000pt" viewBox="0 0 690.000000 303.000000"
 preserveAspectRatio="xMidYMid meet">

<g transform="translate(0.000000,303.000000) scale(0.100000,-0.100000)"
fill="#000000" stroke="none">
<path d="M1560 2719 c-234 -25 -519 -159 -709 -335 -237 -219 -381 -551 -357
-823 9 -105 26 -200 37 -207 5 -3 9 14 9 38 0 141 57 349 132 486 187 342 610
582 1021 582 219 0 362 -64 461 -204 55 -78 77 -136 85 -233 l7 -78 22 46 c60
128 66 288 16 414 -54 135 -193 247 -360 289 -57 15 -230 37 -264 34 -8 0 -53
-5 -100 -9z"/>
<path d="M2447 2295 c12 -240 -55 -505 -183 -718 -227 -378 -675 -692 -1051
-736 -179 -22 -388 15 -523 92 -88 49 -201 169 -243 257 -55 114 -69 191 -65
346 2 73 0 130 -4 128 -11 -7 -64 -179 -78 -251 -19 -95 -9 -292 19 -373 159
-460 779 -598 1363 -304 370 187 650 483 777 824 84 224 94 525 25 740 -38
118 -43 117 -37 -5z"/>
<path d="M2650 1469 c0 -11 60 -174 108 -296 l21 -51 -64 -89 c-35 -48 -93
-127 -129 -175 -50 -67 -61 -88 -49 -92 23 -9 119 -7 146 3 13 5 58 57 101
115 43 58 81 106 85 106 14 0 25 -21 67 -119 28 -68 45 -96 62 -102 32 -12
149 -11 157 1 4 6 -25 84 -64 174 -39 90 -71 169 -71 176 0 7 56 84 126 171
69 88 128 167 131 175 5 13 -8 14 -82 12 l-88 -3 -86 -109 c-47 -60 -91 -111
-97 -113 -6 -2 -28 43 -49 99 -21 57 -43 109 -48 116 -12 16 -177 17 -177 1z"/>
<path d="M3555 1468 c-12 -30 -124 -691 -119 -699 8 -14 142 -11 151 4 4 6 17
57 28 112 l20 100 105 5 c122 7 178 28 234 90 39 43 50 77 68 196 10 73 10 84
-8 119 -35 72 -62 80 -282 83 -153 3 -193 1 -197 -10z m293 -144 c45 -32 21
-163 -34 -184 -30 -12 -141 -13 -147 -2 -5 9 19 178 28 192 10 16 128 12 153
-6z"/>
<path d="M4359 1478 c-28 -135 -124 -705 -119 -711 3 -4 114 -6 246 -5 l239 3
12 60 c7 33 10 66 8 72 -3 9 -48 13 -157 15 l-153 3 2 40 c5 90 -3 85 143 85
148 0 141 -4 155 93 7 44 6 47 -16 49 -13 1 -33 3 -44 4 -11 1 -60 2 -109 3
l-89 1 7 62 c4 35 12 68 18 75 8 10 53 13 164 13 175 0 168 -3 176 91 l3 44
-242 3 c-134 1 -243 1 -244 0z"/>
<path d="M5140 1474 c0 -5 -27 -163 -60 -351 -33 -189 -58 -348 -55 -353 9
-15 152 -12 162 3 4 6 17 68 28 137 l20 125 31 3 c17 2 35 -3 41 -10 6 -7 27
-65 48 -128 21 -63 42 -121 48 -127 11 -16 163 -18 172 -3 3 5 -12 66 -35 136
-22 70 -40 132 -40 138 0 7 14 25 31 42 55 52 89 148 89 249 0 58 -13 85 -57
115 -35 24 -43 25 -230 28 -106 2 -193 0 -193 -4z m274 -155 c22 -17 26 -28
26 -70 0 -40 -5 -55 -25 -74 -21 -22 -33 -25 -90 -25 -61 0 -65 1 -65 23 0 29
20 148 26 159 11 17 101 8 128 -13z"/>
<path d="M5895 1468 c-10 -26 -23 -113 -19 -120 3 -5 56 -8 119 -8 63 0 116
-3 118 -8 5 -6 -38 -263 -77 -470 -9 -46 -13 -88 -10 -93 8 -14 140 -11 152 4
6 6 24 91 41 187 17 96 39 220 49 275 l18 100 122 3 c139 3 133 -1 147 95 l7
47 -331 0 c-256 0 -333 -3 -336 -12z"/>
</g>
</svg>
