<?xml version="1.0" standalone="no"?>
<!DOCTYPE svg PUBLIC "-//W3C//DTD SVG 20010904//EN"
 "http://www.w3.org/TR/2001/REC-SVG-20010904/DTD/svg10.dtd">
<svg version="1.0" xmlns="http://www.w3.org/2000/svg"
 width="218.000000pt" height="256.000000pt" viewBox="0 0 218.000000 256.000000"
 preserveAspectRatio="xMidYMid meet">

<g transform="translate(0.000000,256.000000) scale(0.100000,-0.100000)"
fill="#000000" stroke="none">
<path d="M1246 2518 c-24 -7 -40 -18 -43 -29 -3 -11 -10 -19 -15 -19 -5 0 -7
4 -3 9 13 22 -54 13 -270 -37 -126 -30 -235 -55 -241 -57 -13 -4 -403 -453
-411 -473 -3 -7 -3 -15 -1 -17 4 -4 105 10 226 30 28 5 33 3 43 -22 9 -24 12
-26 20 -11 5 10 10 33 11 53 1 19 7 40 14 46 7 6 16 24 19 40 5 21 38 58 112
124 96 87 133 111 133 85 0 -5 -4 -10 -9 -10 -5 0 -50 -38 -100 -85 -50 -47
-95 -85 -100 -85 -12 0 -34 -67 -28 -84 3 -8 2 -17 -3 -22 -9 -9 -60 -139 -60
-152 0 -4 4 -1 9 7 8 12 13 12 33 -1 12 -8 47 -21 76 -28 94 -22 216 15 355
108 49 33 64 48 53 54 -12 6 -12 17 0 70 17 85 23 99 52 131 31 32 51 34 83 6
28 -24 27 -56 -4 -111 -24 -40 -16 -65 9 -30 8 12 21 22 28 22 15 0 30 56 20
72 -3 5 0 30 7 55 l12 46 75 -7 c91 -7 91 -2 -1 12 -37 6 -74 18 -83 26 -9 9
-31 28 -50 43 -19 14 -33 32 -30 39 3 7 37 55 76 107 38 52 70 97 70 100 0 9
-37 7 -84 -5z m-412 -366 c7 -11 -5 -27 -32 -41 -13 -7 -41 -28 -62 -47 -37
-34 -57 -33 -44 1 8 19 104 95 121 95 6 0 14 -4 17 -8z m171 -73 c-55 -79 -65
-88 -65 -62 0 20 99 148 108 139 3 -3 -17 -38 -43 -77z"/>
<path d="M1470 2172 c54 -22 184 -104 223 -140 15 -14 27 -36 27 -48 0 -26 36
-74 56 -74 9 0 12 5 8 12 -4 7 -3 8 5 4 6 -4 9 -11 6 -15 -2 -5 5 -25 15 -47
24 -46 26 -151 3 -132 -26 21 -25 -2 1 -32 14 -18 24 -36 20 -41 -8 -14 -76
-11 -106 5 -25 13 -28 13 -28 -2 0 -13 -2 -14 -9 -4 -6 10 -11 8 -23 -10 -33
-51 -29 -89 13 -134 31 -34 4 -41 -38 -11 -38 27 -53 27 -53 0 0 -12 -3 -13
-14 -4 -11 9 -23 0 -60 -43 -25 -30 -46 -62 -46 -73 0 -13 -2 -15 -9 -5 -6 11
-13 11 -37 0 -31 -13 -38 -21 -80 -80 l-26 -37 21 -34 c25 -41 26 -60 5 -92
-22 -34 -35 -95 -20 -96 6 -1 22 -3 36 -4 14 -2 39 -6 55 -10 29 -6 35 -2 115
89 85 96 97 103 148 90 21 -6 22 -9 16 -84 l-7 -78 34 -17 33 -18 33 39 c89
103 146 241 166 396 14 109 0 215 -41 320 -35 90 -99 191 -118 184 -8 -3 -11
0 -8 8 17 44 -219 209 -331 231 -21 4 -17 0 15 -13z m445 -533 c4 -17 2 -30
-6 -35 -9 -5 -11 -2 -6 9 3 9 2 19 -3 22 -6 4 -10 16 -10 28 0 27 16 11 25
-24z m-89 -45 c14 -10 23 -23 20 -30 -2 -6 2 -20 9 -31 29 -38 5 -46 -38 -13
-14 11 -33 20 -42 20 -9 0 -13 5 -10 10 3 6 15 10 26 10 20 0 26 15 9 25 -10
6 -14 25 -5 25 3 0 17 -7 31 -16z m-371 -406 c-4 -13 -9 -43 -11 -67 -5 -59
-17 -69 -43 -35 -26 34 -27 70 -1 86 11 7 20 18 20 25 0 7 10 13 21 13 18 0
20 -4 14 -22z"/>
<path d="M1156 1974 c-4 -9 -4 -19 -1 -22 2 -3 7 3 11 12 4 9 4 19 1 22 -2 3
-7 -3 -11 -12z"/>
<path d="M1050 1860 c-13 -8 -12 -10 3 -10 9 0 17 5 17 10 0 12 -1 12 -20 0z"/>
<path d="M531 1774 c0 -11 3 -14 6 -6 3 7 2 16 -1 19 -3 4 -6 -2 -5 -13z"/>
<path d="M563 1663 c-4 -21 -8 -92 -8 -158 0 -182 18 -228 146 -383 l102 -123
26 25 c34 33 87 36 96 6 3 -11 13 -20 20 -20 20 0 169 22 174 26 1 1 -9 19
-24 38 -23 31 -25 38 -14 52 11 14 7 22 -30 56 -24 23 -49 55 -57 73 l-13 33
-72 -4 c-79 -5 -111 8 -131 52 -6 13 -18 24 -25 24 -8 0 -12 4 -9 9 3 5 -11
20 -32 34 -51 34 -87 68 -100 93 -29 55 -44 120 -38 161 7 53 0 57 -11 6z"/>
<path d="M400 1360 c0 -23 164 -362 185 -384 9 -9 32 -16 52 -16 20 0 33 3 30
7 -4 3 7 15 24 25 l30 18 -22 33 c-13 17 -63 85 -112 150 -73 94 -92 115 -104
106 -7 -7 -17 -8 -21 -4 -4 4 -1 10 6 12 23 9 12 34 -23 49 -41 17 -45 17 -45
4z"/>
<path d="M1237 1276 c-3 -8 1 -20 9 -26 11 -10 14 -9 14 8 0 25 -16 37 -23 18z"/>
<path d="M1782 979 c2 -7 -9 -15 -27 -19 l-30 -5 37 -12 c34 -10 38 -9 53 13
8 13 11 24 6 24 -5 0 -17 3 -26 6 -10 4 -15 2 -13 -7z"/>
<path d="M1690 970 c0 -5 5 -10 11 -10 5 0 7 5 4 10 -3 6 -8 10 -11 10 -2 0
-4 -4 -4 -10z"/>
<path d="M1859 959 c-8 -45 -7 -59 5 -50 7 6 16 8 19 4 4 -3 7 1 7 9 0 13 -29
47 -31 37z"/>
<path d="M1690 923 c0 -10 72 -83 82 -83 3 0 4 8 1 19 -3 10 0 22 6 25 19 12
12 23 -16 30 -16 3 -38 8 -50 12 -13 3 -23 2 -23 -3z"/>
<path d="M1840 866 c0 -2 7 -9 15 -16 12 -10 15 -10 15 4 0 9 -7 16 -15 16 -8
0 -15 -2 -15 -4z"/>
<path d="M1829 845 c-4 -3 -4 -15 -2 -26 6 -21 34 -22 41 -1 2 7 -2 10 -11 6
-9 -3 -17 1 -19 11 -1 9 -6 14 -9 10z"/>
<path d="M1754 765 c-15 -23 -14 -26 11 -59 31 -41 42 -39 51 10 5 26 2 40
-11 54 -23 26 -31 25 -51 -5z"/>
<path d="M750 766 c0 -9 5 -16 10 -16 6 0 10 4 10 9 0 6 -4 13 -10 16 -5 3
-10 -1 -10 -9z"/>
<path d="M790 746 c0 -9 5 -16 10 -16 6 0 10 4 10 9 0 6 -4 13 -10 16 -5 3
-10 -1 -10 -9z"/>
<path d="M820 731 c0 -6 5 -13 10 -16 6 -3 10 1 10 9 0 9 -4 16 -10 16 -5 0
-10 -4 -10 -9z"/>
<path d="M862 709 c1 -12 9 -24 16 -27 9 -3 13 3 10 19 -1 12 -9 24 -16 27 -9
3 -13 -3 -10 -19z"/>
<path d="M1675 720 c-42 -18 -60 -23 -72 -21 -14 2 -17 -11 -5 -23 4 -4 7 -13
7 -19 0 -8 26 -11 84 -10 46 2 86 5 89 8 7 7 -59 75 -72 74 -6 0 -20 -4 -31
-9z"/>
<path d="M907 680 c3 -11 9 -20 14 -20 5 0 9 9 9 20 0 11 -6 20 -14 20 -9 0
-12 -7 -9 -20z"/>
<path d="M1434 675 c-8 -13 -13 -29 -9 -35 10 -17 52 -12 58 8 2 9 8 25 12 35
12 29 -41 22 -61 -8z"/>
<path d="M1515 668 c-17 -42 -12 -48 33 -47 36 0 36 1 12 11 -14 6 -29 10 -33
9 -5 -1 -6 3 -2 9 5 8 11 7 21 -1 20 -17 26 -6 15 25 -14 35 -29 33 -46 -6z"/>
<path d="M950 666 c0 -13 7 -26 15 -30 11 -4 15 2 15 24 0 20 -5 30 -15 30 -9
0 -15 -9 -15 -24z"/>
<path d="M1000 641 c0 -16 7 -31 15 -35 11 -4 15 2 15 23 0 16 -7 31 -15 35
-11 4 -15 -2 -15 -23z"/>
<path d="M1050 623 c0 -20 18 -43 33 -43 4 0 7 12 5 27 -4 32 -38 46 -38 16z"/>
<path d="M1110 596 c0 -25 6 -38 20 -46 18 -10 20 -8 20 24 0 25 -6 38 -20 46
-18 10 -20 8 -20 -24z"/>
<path d="M1170 575 c0 -24 6 -38 19 -45 30 -15 32 -13 29 26 -2 27 -9 39 -25
45 -21 8 -23 5 -23 -26z"/>
<path d="M820 434 c-14 -2 -162 -15 -330 -29 -318 -28 -339 -30 -324 -44 8 -7
176 0 302 12 l42 5 0 -40 c0 -35 2 -39 15 -28 13 10 15 9 15 -9 0 -11 -5 -21
-12 -21 -9 0 -9 -3 0 -12 7 -7 12 -20 12 -29 0 -21 66 -110 104 -140 28 -22
28 -22 17 -1 -15 28 -14 71 3 104 14 26 13 30 -11 58 -24 29 -73 42 -73 20 0
-5 -7 -10 -16 -10 -8 0 -13 4 -10 9 4 5 7 28 8 50 1 23 4 42 7 42 3 1 15 3 26
4 11 2 25 4 30 5 6 1 29 2 53 1 36 -1 45 -5 62 -33 28 -46 26 -68 -6 -68 -14
0 -23 -4 -20 -9 4 -5 23 -5 46 1 32 8 49 7 80 -5 38 -14 39 -14 30 2 -5 10
-39 38 -74 62 -36 24 -66 47 -66 51 0 3 41 10 90 14 63 4 90 10 90 19 0 8 6
16 13 18 13 6 -61 6 -103 1z"/>
<path d="M87 404 c27 -38 50 -58 55 -47 3 4 -13 24 -36 43 l-40 35 21 -31z"/>
<path d="M792 232 c-7 -5 -10 -16 -6 -25 7 -18 24 -23 24 -8 0 5 3 16 6 25 7
17 -3 20 -24 8z"/>
<path d="M878 232 c-20 -8 -59 -57 -52 -65 3 -3 17 1 32 9 26 13 27 13 33 -17
4 -16 10 -33 13 -37 9 -8 26 18 26 41 0 16 -27 78 -33 76 -1 0 -10 -3 -19 -7z"/>
<path d="M710 185 c-10 -12 -7 -15 14 -21 35 -8 54 5 31 23 -24 17 -30 16 -45
-2z"/>
<path d="M850 124 c0 -9 7 -14 17 -12 25 5 28 28 4 28 -12 0 -21 -6 -21 -16z"/>
<path d="M715 116 l-30 -12 27 -27 c21 -21 37 -27 73 -27 43 0 45 1 45 30 0
23 -5 30 -19 30 -13 0 -21 -8 -23 -22 -2 -15 -11 -24 -27 -26 -25 -4 -25 3 -6
51 8 20 1 21 -40 3z"/>
</g>
</svg>
